<svg id="Capa_1" enable-background="new 0 0 512 512" height="512" viewBox="0 0 512 512" width="512" xmlns="http://www.w3.org/2000/svg"><g><path d="m492.804 198.28c0-32.607-12.695-63.253-35.746-86.293l-64.37-64.38c-2.93-2.928-7.679-2.93-10.606-.001-2.93 2.929-2.93 7.677-.001 10.607l64.372 64.382c12.184 12.178 21.069 26.779 26.206 42.719-13.068-13.546-31.399-21.984-51.664-21.984h-39.15c-17.849 0-32.37-14.526-32.37-32.38v-39.14c0-20.19-8.375-38.46-21.834-51.52 10.989 3.578 21.404 8.911 30.701 15.819 3.324 2.47 8.022 1.779 10.493-1.546s1.778-8.023-1.546-10.493c-20.886-15.52-46.724-24.068-72.756-24.07-.001 0-.002 0-.003 0h-.005-176.695c-26.12 0-47.37 21.255-47.37 47.38v102.281h-9.845c-22.839 0-41.419 18.581-41.419 41.419v194.204c0 22.839 18.581 41.419 41.419 41.419h10.606l.328 47.269c.004.57.073 1.137.205 1.691 5.112 21.395 24.059 36.337 46.076 36.337h327.6c26.12 0 47.37-21.255 47.37-47.38zm-432.189-33.619h9.845v52.838h-9.845c-14.568 0-26.419-11.852-26.419-26.419s11.851-26.419 26.419-26.419zm384.814 332.339h-327.6c-14.775 0-27.525-9.841-31.287-24.034l-.321-46.263h243.247c33.018 0 59.88-26.862 59.88-59.88v-89.443c0-33.018-26.862-59.88-59.88-59.88h-170.349c-4.142 0-7.5 3.358-7.5 7.5s3.358 7.5 7.5 7.5h170.351c24.747 0 44.88 20.133 44.88 44.88v89.443c0 24.747-20.133 44.88-44.88 44.88h-268.855c-14.568 0-26.419-11.852-26.419-26.419v-162.331c7.176 5.958 16.386 9.546 26.419 9.546h68.504c4.142 0 7.5-3.358 7.5-7.5s-3.358-7.5-7.5-7.5h-43.659v-170.119c0-17.854 14.521-32.38 32.37-32.38h159.835c31.325 0 56.81 25.485 56.81 56.81v39.14c0 26.125 21.25 47.38 47.37 47.38h39.15c31.261 0 56.7 25.381 56.805 56.617v249.673c0 17.854-14.522 32.38-32.371 32.38z"/><path d="m197.509 376.99c.536.092 1.121.192 11.451.192 5.049 0 12.427-.024 23.265-.084 4.142-.023 7.481-3.4 7.458-7.542s-3.379-7.511-7.542-7.458c-7.705.043-18.725.084-25.866.08v-87.904c0-4.142-3.358-7.5-7.5-7.5s-7.5 3.358-7.5 7.5v95.324c0 3.653 2.632 6.775 6.234 7.392z"/><path d="m294.658 377.178c17.669 0 33.056-11.547 35.789-26.859 3.143-17.598-10.808-29.427-24.909-34.628-12.448-4.591-23.981-9.608-26.695-10.802-3.416-2.451-5.08-6.405-4.466-10.683.755-5.256 4.752-9.463 10.692-11.253 15.859-4.775 30.085 6.679 30.342 6.889 3.171 2.644 7.885 2.228 10.543-.935 2.665-3.171 2.256-7.902-.915-10.567-.826-.694-20.498-16.919-44.296-9.749-11.503 3.465-19.632 12.464-21.214 23.483-1.469 10.233 2.961 20.074 11.563 25.682.331.216.679.406 1.04.567.547.244 13.555 6.034 28.215 11.442 11.051 4.076 16.64 10.607 15.334 17.918-1.255 7.027-9.049 14.495-21.022 14.495-10.711 0-21.062-4.366-27.688-11.678-2.782-3.07-7.526-3.301-10.594-.521-3.069 2.781-3.302 7.525-.521 10.594 9.422 10.397 23.928 16.605 38.802 16.605z"/><path d="m101.696 269.958c-2.383-3.388-7.062-4.201-10.45-1.819-3.388 2.383-4.202 7.062-1.819 10.449l28.136 39.996-32.951 46.774c-2.385 3.386-1.574 8.065 1.812 10.451 1.313.925 2.82 1.369 4.313 1.369 2.357 0 4.677-1.108 6.138-3.181l29.856-42.381 29.811 42.377c1.46 2.076 3.782 3.186 6.141 3.186 1.491 0 2.997-.444 4.309-1.366 3.388-2.383 4.202-7.062 1.819-10.449l-32.903-46.772 28.177-39.998c2.385-3.386 1.574-8.065-1.812-10.451s-8.065-1.574-10.451 1.812l-25.082 35.604z"/></g></svg>